<?xml version="1.0" encoding="UTF-8"?>
<svg id="Layer_2" data-name="Layer 2" xmlns="http://www.w3.org/2000/svg" viewBox="0 0 484.49 661.55">
  <defs>
    <style>
      .cls-1 {
        fill: #ba8c64;
      }
    </style>
  </defs>
  <g id="Layer_1-2" data-name="Layer 1">
    <g>
      <path class="cls-1" d="M11.98,641.04c-1.3-.59-2.73-.58-3.96-.08-1.14.46-2.12,1.35-2.67,2.56-1.65,3.62-3.31,7.32-4.93,11.01-1.11,2.53.04,5.48,2.56,6.59,2.53,1.11,5.48-.04,6.59-2.56,1.6-3.65,3.25-7.31,4.88-10.89,1.15-2.51.04-5.48-2.48-6.62Z"/>
      <path class="cls-1" d="M40.39,576.67c-1.02.42-1.92,1.17-2.49,2.21-1.92,3.47-3.86,7.03-5.77,10.59-1.31,2.43-.39,5.46,2.04,6.77,2.43,1.3,5.46.39,6.77-2.04,1.89-3.53,3.81-7.05,5.71-10.48,1.34-2.42.46-5.46-1.95-6.8-1.38-.76-2.95-.81-4.3-.26Z"/>
      <path class="cls-1" d="M180.43,391.95c2,1.9,5.17,1.83,7.07-.17,2.72-2.86,5.51-5.75,8.29-8.59,1.93-1.98,1.89-5.14-.08-7.07-1.47-1.43-3.59-1.78-5.38-1.06-.62.25-1.2.63-1.69,1.14-2.8,2.87-5.62,5.79-8.37,8.68-1.9,2-1.83,5.16.17,7.07Z"/>
      <path class="cls-1" d="M232.14,334.44c-2.05,1.85-2.22,5.01-.37,7.06,1.85,2.05,5.01,2.22,7.06.37,2.94-2.65,5.95-5.31,8.93-7.92,2.08-1.82,2.29-4.98.47-7.05-1.44-1.65-3.72-2.12-5.64-1.34-.5.2-.98.49-1.41.87-3.01,2.64-6.05,5.33-9.02,8.01Z"/>
      <path class="cls-1" d="M346.04,414.43c-3.77.11-7.61.01-11.42-.3-.81-.07-1.59.06-2.29.35-1.69.69-2.94,2.28-3.11,4.22-.23,2.75,1.82,5.17,4.57,5.39,4.18.35,8.4.46,12.55.33,2.77-.08,4.93-2.39,4.85-5.15-.08-2.76-2.39-4.93-5.15-4.85Z"/>
      <path class="cls-1" d="M210.85,262.17c-.75-.04-1.47.09-2.12.36-1.75.71-3.02,2.38-3.11,4.39-.2,4.12-.26,8.28-.17,12.35.06,2.76,2.35,4.95,5.11,4.89,2.76-.06,4.95-2.35,4.89-5.11-.08-3.83-.03-7.75.16-11.64.14-2.76-1.99-5.1-4.75-5.24Z"/>
      <path class="cls-1" d="M210.84,298.39c-2.13.87-3.45,3.12-3.04,5.48.4,2.33.86,4.68,1.37,6.98.37,1.71.79,3.44,1.24,5.17.7,2.67,3.43,4.27,6.1,3.57,2.68-.71,4.27-3.43,3.57-6.1-.42-1.59-.8-3.2-1.15-4.78-.47-2.17-.91-4.37-1.28-6.55-.47-2.72-3.06-4.55-5.78-4.08-.36.06-.71.16-1.03.3Z"/>
      <path class="cls-1" d="M282.33,402.26c1.48-2.33.79-5.42-1.54-6.9-3.23-2.05-6.43-4.28-9.5-6.61-1.46-1.11-3.33-1.29-4.91-.65-.8.33-1.53.87-2.1,1.61-1.67,2.2-1.24,5.34.96,7.01,3.3,2.5,6.73,4.89,10.19,7.09,2.33,1.48,5.42.79,6.9-1.54Z"/>
      <path class="cls-1" d="M217.19,226.78c-1.07-.27-2.15-.17-3.1.21-1.43.58-2.57,1.81-2.97,3.41-1,3.99-1.89,8.04-2.63,12.03-.5,2.71,1.29,5.32,4,5.83,2.72.5,5.33-1.29,5.83-4,.7-3.78,1.54-7.62,2.49-11.41.67-2.68-.95-5.4-3.63-6.07Z"/>
      <path class="cls-1" d="M297.49,415.24c3.87,1.58,7.83,2.98,11.76,4.16,2.64.79,5.43-.7,6.23-3.35.79-2.64-.7-5.43-3.35-6.23-3.62-1.09-7.27-2.38-10.85-3.84-1.26-.51-2.6-.48-3.77,0s-2.22,1.44-2.75,2.74c-1.04,2.56.18,5.48,2.74,6.52Z"/>
      <path class="cls-1" d="M224.57,350.43c1.37,2.4,4.42,3.22,6.82,1.86,2.4-1.37,3.23-4.43,1.86-6.82-1.92-3.36-3.71-6.82-5.32-10.28-1.13-2.43-3.96-3.52-6.41-2.53-.08.03-.15.06-.23.1-2.5,1.17-3.59,4.14-2.43,6.64,1.73,3.72,3.65,7.43,5.71,11.03Z"/>
      <path class="cls-1" d="M156.25,418.63c2.07,1.83,5.23,1.63,7.06-.44,2.62-2.97,5.29-5.97,7.95-8.91,1.85-2.05,1.69-5.21-.36-7.06-1.47-1.33-3.52-1.62-5.24-.92-.68.27-1.3.7-1.82,1.28-2.68,2.97-5.39,6-8.03,9-1.83,2.07-1.63,5.23.44,7.06Z"/>
      <path class="cls-1" d="M270.21,302.48c-.42.17-.82.4-1.19.69-3.04,2.37-6.13,4.85-9.47,7.6-2.13,1.76-2.44,4.91-.68,7.04,1.75,2.13,4.91,2.44,7.04.68,3.26-2.69,6.29-5.12,9.25-7.43,2.18-1.7,2.57-4.84.87-7.02-1.41-1.8-3.8-2.38-5.82-1.56Z"/>
      <path class="cls-1" d="M254.01,373.29c-2.66-2.79-5.23-5.72-7.66-8.71-1.42-1.75-3.78-2.29-5.76-1.48-.45.18-.88.43-1.27.75-2.14,1.74-2.47,4.89-.73,7.03,2.59,3.2,5.35,6.33,8.18,9.31,1.9,2,5.07,2.08,7.07.17,2-1.9,2.08-5.07.17-7.07Z"/>
      <path class="cls-1" d="M215.97,349.8c-.56.23-1.09.56-1.56,1-2.9,2.75-5.83,5.56-8.71,8.35-1.98,1.93-2.02,5.09-.1,7.07,1.92,1.98,5.09,2.02,7.07.1,2.84-2.77,5.74-5.55,8.61-8.26,2.01-1.9,2.09-5.06.19-7.07-1.46-1.54-3.66-1.95-5.51-1.2Z"/>
      <path class="cls-1" d="M111.06,474.66c2.21,1.66,5.34,1.22,7-.98,2.38-3.16,4.82-6.35,7.25-9.49,1.69-2.18,1.29-5.32-.9-7.01-1.46-1.13-3.35-1.32-4.94-.68-.79.32-1.51.85-2.07,1.57-2.45,3.17-4.91,6.39-7.32,9.59-1.66,2.21-1.22,5.34.98,7Z"/>
      <path class="cls-1" d="M299.35,282.53c-3.44,1.96-6.97,4.11-10.5,6.4-2.31,1.5-2.97,4.6-1.47,6.92,1.51,2.31,4.6,2.97,6.92,1.47,3.36-2.18,6.72-4.24,9.99-6.09,2.4-1.36,3.24-4.42,1.87-6.82-1.25-2.21-3.93-3.09-6.22-2.16-.2.08-.4.18-.6.29Z"/>
      <path class="cls-1" d="M406.69,48.01c3.58-1.66,7.23-3.32,10.85-4.93,2.52-1.12,3.66-4.08,2.54-6.6-1.1-2.47-3.96-3.61-6.45-2.6-.05.02-.1.04-.15.07-3.67,1.63-7.37,3.31-11,5-2.5,1.16-3.59,4.14-2.43,6.64,1.16,2.51,4.15,3.58,6.64,2.43Z"/>
      <path class="cls-1" d="M23.58,608.5c-1.08.44-2.02,1.26-2.58,2.38-1.78,3.54-3.59,7.18-5.35,10.81-1.21,2.48-.18,5.48,2.3,6.69,2.48,1.21,5.48.18,6.69-2.3,1.75-3.59,3.53-7.19,5.3-10.69,1.24-2.47.25-5.47-2.22-6.71-1.34-.68-2.84-.69-4.13-.17Z"/>
      <path class="cls-1" d="M58.47,562.98c2.01-3.42,4.07-6.87,6.11-10.25,1.43-2.36.67-5.44-1.69-6.87-1.4-.85-3.06-.93-4.47-.35-.96.39-1.81,1.09-2.39,2.05-2.06,3.42-4.14,6.9-6.17,10.36-1.4,2.38-.6,5.45,1.78,6.84,2.38,1.4,5.45.6,6.84-1.78Z"/>
      <path class="cls-1" d="M425.08,307.83c1.28,2.45,4.31,3.41,6.74,2.13,2.45-1.27,3.4-4.29,2.13-6.74-1.31-2.51-2.78-4.95-4.39-7.24-.86-1.23-1.78-2.45-2.73-3.62-1.42-1.75-3.78-2.3-5.77-1.49-.45.18-.87.43-1.27.75-2.15,1.74-2.48,4.89-.74,7.03.8.99,1.58,2.02,2.31,3.07,1.35,1.93,2.6,3.99,3.71,6.12Z"/>
      <path class="cls-1" d="M90.1,503.92c2.27,1.57,5.38,1.02,6.96-1.25,2.27-3.26,4.58-6.54,6.88-9.76,1.61-2.25,1.09-5.37-1.16-6.97-1.45-1.03-3.26-1.19-4.79-.56-.85.34-1.61.93-2.18,1.72-2.32,3.25-4.66,6.57-6.95,9.86-1.58,2.27-1.02,5.38,1.25,6.96Z"/>
      <path class="cls-1" d="M367.9,61.81c1.29,2.44,4.31,3.37,6.76,2.08,3.47-1.83,7.02-3.68,10.58-5.48,2.46-1.25,3.45-4.26,2.2-6.72-1.18-2.34-3.95-3.35-6.34-2.38-.13.05-.26.11-.38.17-3.61,1.83-7.22,3.7-10.74,5.56-2.44,1.29-3.37,4.32-2.08,6.76Z"/>
      <path class="cls-1" d="M279.65,123.53c1.89,2.01,5.05,2.12,7.07.23,2.77-2.59,5.72-5.23,8.78-7.84,2.1-1.79,2.35-4.95.56-7.05-1.43-1.68-3.74-2.18-5.68-1.39-.48.2-.95.47-1.37.83-3.17,2.71-6.24,5.45-9.12,8.15-2.01,1.89-2.12,5.05-.23,7.07Z"/>
      <path class="cls-1" d="M262.84,149.69c2.42-3.05,4.96-6.09,7.54-9.03,1.82-2.08,1.61-5.23-.46-7.06-1.47-1.29-3.48-1.56-5.18-.87-.7.28-1.34.73-1.87,1.34-2.68,3.06-5.32,6.22-7.85,9.4-1.72,2.16-1.36,5.31.8,7.03s5.31,1.36,7.03-.8Z"/>
      <path class="cls-1" d="M307.06,100.21c1.63,2.23,4.76,2.71,6.99,1.08,3.11-2.28,6.37-4.59,9.67-6.85,2.28-1.56,2.85-4.68,1.29-6.95-1.35-1.97-3.87-2.67-6-1.8-.33.13-.65.3-.95.51-3.38,2.32-6.72,4.69-9.92,7.03-2.23,1.63-2.71,4.76-1.08,6.99Z"/>
      <path class="cls-1" d="M336.76,79.88c1.44,2.35,4.53,3.1,6.88,1.65,3.32-2.03,6.76-4.08,10.21-6.09,2.39-1.39,3.2-4.45,1.81-6.84-1.27-2.18-3.93-3.04-6.2-2.12-.22.09-.43.19-.64.31-3.52,2.05-7.02,4.14-10.4,6.21-2.36,1.44-3.09,4.52-1.65,6.87Z"/>
      <path class="cls-1" d="M375.53,270.14c.26-2.75-1.76-5.19-4.51-5.44-4.15-.39-8.39-.52-12.6-.4-.61.02-1.2.15-1.74.36-1.88.76-3.18,2.63-3.12,4.78.08,2.76,2.38,4.93,5.14,4.85,3.8-.11,7.63.01,11.38.36,2.75.26,5.19-1.76,5.44-4.51Z"/>
      <path class="cls-1" d="M218.52,206.98c-.98,2.58.31,5.47,2.9,6.45,2.58.98,5.47-.31,6.45-2.9,1.37-3.61,2.88-7.26,4.47-10.83,1.12-2.52-.01-5.48-2.53-6.6-1.29-.58-2.7-.56-3.92-.06s-2.14,1.37-2.69,2.6c-1.67,3.74-3.24,7.56-4.68,11.35Z"/>
      <path class="cls-1" d="M441.77,340.6c.21-4.29.07-8.6-.41-12.8-.32-2.74-2.8-4.71-5.54-4.4-.46.05-.9.17-1.31.33-2.03.82-3.35,2.92-3.08,5.2.42,3.66.54,7.41.36,11.16-.14,2.76,1.99,5.1,4.75,5.24,2.76.14,5.1-1.99,5.24-4.75Z"/>
      <path class="cls-1" d="M147.13,429.25c-1.47-1.23-3.44-1.47-5.09-.8-.73.3-1.41.77-1.95,1.42-2.53,3.03-5.12,6.16-7.68,9.3-1.75,2.14-1.43,5.29.71,7.04,2.14,1.74,5.29,1.43,7.04-.71,2.54-3.11,5.1-6.21,7.6-9.2,1.77-2.12,1.49-5.27-.62-7.04Z"/>
      <path class="cls-1" d="M379.39,407.5c-3.52,1.41-7.17,2.62-10.83,3.61-.2.05-.4.12-.59.2-2.31.94-3.6,3.47-2.94,5.93.72,2.67,3.46,4.25,6.13,3.53,4.03-1.09,8.05-2.42,11.93-3.97,2.61-1.02,3.81-3.93,2.79-6.5s-3.93-3.81-6.5-2.79Z"/>
      <path class="cls-1" d="M243,178.8c1.94-3.36,4-6.73,6.13-10.02,1.5-2.32.83-5.41-1.49-6.91-1.42-.92-3.14-1.02-4.6-.43-.92.37-1.74,1.02-2.31,1.92-2.22,3.43-4.37,6.95-6.39,10.45-1.38,2.39-.56,5.45,1.83,6.83,2.39,1.38,5.45.56,6.83-1.83Z"/>
      <path class="cls-1" d="M336.2,277.7c2.67-.74,4.23-3.48,3.5-6.14-.73-2.66-3.48-4.23-6.14-3.5-3.93,1.07-7.92,2.37-11.86,3.86-.04.01-.08.03-.11.05-2.51,1.02-3.76,3.86-2.79,6.4.98,2.58,3.86,3.88,6.45,2.91,3.64-1.38,7.33-2.58,10.95-3.57Z"/>
      <path class="cls-1" d="M409.69,388.49c-.55.22-1.07.55-1.53.97-2.73,2.54-5.68,4.95-8.79,7.17-2.25,1.6-2.77,4.73-1.16,6.97,1.6,2.25,4.72,2.77,6.97,1.16,3.46-2.47,6.75-5.16,9.79-7.99,2.02-1.88,2.13-5.05.25-7.07-1.45-1.56-3.67-1.98-5.54-1.23Z"/>
      <path class="cls-1" d="M429.95,359.1c-1.23.5-2.27,1.49-2.78,2.83-1.06,2.74-2.29,5.41-3.67,7.94-.39.71-.79,1.42-1.2,2.11-1.4,2.38-.61,5.44,1.77,6.85,2.38,1.4,5.44.61,6.85-1.77.47-.79.92-1.6,1.36-2.41,1.59-2.91,3.01-5.98,4.22-9.12,1-2.58-.29-5.47-2.86-6.47-1.24-.48-2.54-.43-3.68.03Z"/>
      <path class="cls-1" d="M77.19,532.46c2.11-3.3,4.3-6.67,6.5-10.01,1.52-2.31.88-5.41-1.43-6.93-1.43-.94-3.16-1.05-4.63-.45-.91.37-1.71,1-2.29,1.88-2.22,3.38-4.43,6.78-6.57,10.12-1.49,2.33-.81,5.42,1.52,6.91s5.42.81,6.91-1.52Z"/>
      <path class="cls-1" d="M407.21,275.79c-3.62-2.08-7.5-3.91-11.55-5.46-1.23-.47-2.53-.42-3.66.04-1.24.5-2.28,1.5-2.79,2.85-.98,2.58.31,5.47,2.89,6.45,3.56,1.35,6.97,2.96,10.13,4.78,2.39,1.38,5.45.55,6.83-1.84,1.38-2.39.55-5.45-1.84-6.83Z"/>
      <path class="cls-1" d="M484.49,11.81c-24.23.03-55.66-3.63-77.35-11.81l25.59,30.18c.06.27.13.54.24.8.09.23.22.44.34.65l.36,39.68c11.07-20.37,32.47-43.68,50.82-59.5Z"/>
    </g>
  </g>
</svg>