<?xml version="1.0" encoding="UTF-8"?>
<svg xmlns="http://www.w3.org/2000/svg" viewBox="0 0 251.48 108.85">
  <defs>
    <style>
      .cls-1 {
        stroke: #006ca6;
        stroke-miterlimit: 10;
      }

      .cls-1, .cls-2 {
        opacity: .5;
      }

      .cls-1, .cls-2, .cls-3, .cls-4, .cls-5, .cls-6 {
        fill: #67a9d7;
      }

      .cls-1, .cls-2, .cls-5 {
        mix-blend-mode: multiply;
      }

      .cls-3 {
        opacity: .6;
      }

      .cls-3, .cls-4 {
        mix-blend-mode: screen;
      }

      .cls-7 {
        isolation: isolate;
      }

      .cls-8 {
        fill: #0080b6;
      }

      .cls-9 {
        fill: #006ca6;
      }

      .cls-10 {
        fill: #4681b3;
      }

      .cls-5 {
        opacity: .4;
      }
    </style>
  </defs>
  <g class="cls-7">
    <g id="Layer_2" data-name="Layer 2">
      <g id="Layer_1-2" data-name="Layer 1">
        <g>
          <path class="cls-6" d="M243.52,45.76l-5.33,28.03s-1.3,2.25-5.18,3.19c-3.88.94-160.83,31.17-160.83,31.17,0,0-11.2,2.19-17.62-2.69l-40.24-31.64s-6.43-4.34-6.8-12.51c-.27-5.84-1.04-23.12-1.04-23.12l237.04,7.58Z"/>
          <path class="cls-9" d="M54.43,105.63l-40.22-31.63c-.07-.04-6.52-4.49-6.9-12.68-.27-5.84-1.04-23.12-1.04-23.12,0-.06.02-.12.06-.16.04-.04.1-.07.16-.06l237.04,7.58c.06,0,.12.03.16.08.04.05.06.11.04.17l-5.33,28.03s-.01.05-.02.07c-.05.09-1.39,2.34-5.31,3.29-3.84.93-159.27,30.87-160.84,31.17-.03,0-2.67.51-6.07.49h0c-3.44-.02-8.26-.6-11.71-3.22ZM243.27,45.97L6.7,38.4c.09,2.06.78,17.46,1.03,22.89.37,7.97,6.65,12.31,6.72,12.36l40.23,31.64c3.36,2.55,8.08,3.11,11.46,3.13h0c3.36.02,5.96-.48,5.99-.49,1.57-.3,156.99-30.23,160.82-31.16,3.5-.85,4.86-2.81,5.03-3.07l5.28-27.75Z"/>
          <path class="cls-6" d="M243.52,45.76l-5.33,28.03s-1.3,2.25-5.18,3.19c-3.88.94-160.83,31.17-160.83,31.17,0,0-11.2,2.19-17.62-2.69l-40.24-31.64s-6.43-4.34-6.8-12.51c-.27-5.84-1.04-23.12-1.04-23.12l237.04,7.58Z"/>
          <path class="cls-9" d="M54.43,105.63l-40.22-31.63c-.07-.04-6.52-4.49-6.9-12.68-.27-5.84-1.04-23.12-1.04-23.12,0-.06.02-.12.06-.16.04-.04.1-.07.16-.06l237.04,7.58c.06,0,.12.03.16.08.04.05.06.11.04.17l-5.33,28.03s-.01.05-.02.07c-.05.09-1.39,2.34-5.31,3.29-3.84.93-159.27,30.87-160.84,31.17-.03,0-2.67.51-6.07.49h0c-3.44-.02-8.26-.6-11.71-3.22ZM243.27,45.97L6.7,38.4c.09,2.06.78,17.46,1.03,22.89.37,7.97,6.65,12.31,6.72,12.36l40.23,31.64c3.36,2.55,8.08,3.11,11.46,3.13h0c3.36.02,5.96-.48,5.99-.49,1.57-.3,156.99-30.23,160.82-31.16,3.5-.85,4.86-2.81,5.03-3.07l5.28-27.75Z"/>
          <path class="cls-6" d="M243.52,45.76l-5.33,28.03s-1.3,2.25-5.18,3.19c-3.88.94-160.83,31.17-160.83,31.17,0,0-11.2,2.19-17.62-2.69l-40.24-31.64s-6.43-4.34-6.8-12.51c-.27-5.84-1.04-23.12-1.04-23.12l237.04,7.58Z"/>
          <path class="cls-9" d="M54.43,105.63l-40.22-31.63c-.07-.04-6.52-4.49-6.9-12.68-.27-5.84-1.04-23.12-1.04-23.12,0-.06.02-.12.06-.16.04-.04.1-.07.16-.06l237.04,7.58c.06,0,.12.03.16.08.04.05.06.11.04.17l-5.33,28.03s-.01.05-.02.07c-.05.09-1.39,2.34-5.31,3.29-3.84.93-159.27,30.87-160.84,31.17-.03,0-2.67.51-6.07.49h0c-3.44-.02-8.26-.6-11.71-3.22ZM243.27,45.97L6.7,38.4c.09,2.06.78,17.46,1.03,22.89.37,7.97,6.65,12.31,6.72,12.36l40.23,31.64c3.36,2.55,8.08,3.11,11.46,3.13h0c3.36.02,5.96-.48,5.99-.49,1.57-.3,156.99-30.23,160.82-31.16,3.5-.85,4.86-2.81,5.03-3.07l5.28-27.75Z"/>
          <path class="cls-5" d="M243.52,45.76l-1.54,7.5c-3.29.86-169.59,30.21-169.59,30.21,0,0-12.21,3.38-18.63-1.5L14.45,53.65s-3.86-2.74-7.57-6.53c-.22-4.86-.4-8.94-.4-8.94l237.04,7.58Z"/>
          <path class="cls-2" d="M56.17,39.77c.18,18.78,2.23,37.48,2.74,56.26.15,5.74,2.13,10.17,7.27,12.61-3.67-.02-8.28-.65-11.61-3.18l-40.24-31.64s-6.43-4.34-6.8-12.51c-.27-5.84-1.04-23.12-1.04-23.12l49.69,1.59Z"/>
          <path class="cls-10" d="M11.23,30.56C104.8,15.59,112.19,13.9,175.88,3.44c5.11-.77,11.46-1.89,14.9-.91,4.22,1.21,8.21,5,8.21,5l52.18,36.55s.21,1.13.03,2.26c-.25,1.57-1.8,3.81-11.45,5.48l-168.16,27.52c-12.8,2.7-19.9-2.02-19.9-2.02L2.99,40.61c-1.66-1.48-2.45-2.75-2.64-3.85-.04-.22-.15-2.2-.14-2.41.23-4.43,11.02-3.8,11.02-3.8Z"/>
          <path class="cls-9" d="M51.56,77.5L2.84,40.77c-1.59-1.42-2.5-2.75-2.7-3.97-.04-.23-.15-2.22-.14-2.46.19-3.69,7.11-4.05,10.08-4.03.62,0,1.04.02,1.14.03,59.37-9.5,84.17-13.67,110.42-18.09,15.21-2.56,30.94-5.2,54.21-9.03l1.42-.22c3.35-.51,7.15-1.1,10.18-1.08,1.39,0,2.49.14,3.39.39,4.22,1.21,8.26,5.01,8.27,5.03l52.18,36.55s.08.08.09.13c0,.05.21,1.18.03,2.33-.25,1.61-1.73,3.94-11.62,5.66l-168.15,27.52c-2.71.57-5.37.85-7.92.84h0c-7.78-.05-12.1-2.86-12.15-2.9ZM198.84,7.69s-4-3.76-8.12-4.95c-.86-.25-1.93-.37-3.27-.38-2.99-.02-6.77.56-10.11,1.07l-1.42.22c-23.27,3.82-38.99,6.47-54.21,9.03-26.26,4.42-51.06,8.59-110.44,18.09-.02,0-.03,0-.05,0-.02,0-.45-.02-1.14-.03-2.22-.01-9.48.21-9.65,3.63-.01.2.1,2.17.13,2.36.19,1.12,1.05,2.37,2.55,3.71l48.7,36.71s4.27,2.78,11.91,2.82c2.52.02,5.15-.26,7.84-.83l168.16-27.52c10.73-1.87,11.14-4.46,11.28-5.31.14-.9.03-1.82-.02-2.1L198.84,7.69Z"/>
          <path class="cls-6" d="M11.24,28.62C104.81,13.65,112.2,11.97,175.89,1.5c5.11-.77,11.46-1.89,14.9-.9,4.22,1.21,8.21,5,8.21,5l50.95,36.83s6.56,4.55-10.19,7.47l-168.16,27.52c-12.8,2.7-19.9-2.03-19.9-2.03L3,38.67c-9.2-8.19,8.25-10.05,8.25-10.05Z"/>
          <path class="cls-8" d="M51.58,75.56L2.86,38.83c-2.24-2-3.12-3.81-2.61-5.41,1.26-3.94,10.58-4.98,10.96-5.02,59.4-9.5,84.21-13.68,110.46-18.09,15.21-2.56,30.93-5.2,54.19-9.02l1.42-.22C180.64.56,184.43-.02,187.46,0c1.39,0,2.49.14,3.39.4,4.22,1.21,8.26,5.01,8.28,5.03l50.95,36.82c.07.05,1.65,1.17,1.31,2.72-.48,2.15-4.37,3.88-11.58,5.13l-168.15,27.52c-2.71.57-5.37.85-7.92.84h0c-7.78-.05-12.1-2.87-12.15-2.9ZM177.35,1.5l-1.42.22c-23.25,3.82-38.98,6.46-54.18,9.02-26.26,4.42-51.06,8.59-110.48,18.1-.09.01-9.43,1.05-10.61,4.72-.45,1.42.38,3.08,2.47,4.95l48.7,36.71s4.27,2.77,11.91,2.82c2.52.02,5.15-.26,7.84-.83l168.16-27.52c8.75-1.52,10.94-3.45,11.24-4.8.28-1.27-1.12-2.27-1.14-2.28L198.85,5.75s-4.01-3.76-8.12-4.95c-.86-.25-1.93-.37-3.27-.38-2.99-.02-6.77.56-10.11,1.07Z"/>
          <path class="cls-3" d="M233.3,56.33l-156.2,28.73s-3.22,1.26-3.86,3.53c-.63,2.26-.18,11.57-.18,11.57,0,0,.39,4.13,5.75,4.16s149.15-28.16,149.15-28.16c0,0,6.76-1.09,8.22-4.59l1.44-10.42s1.23-5.25-4.34-4.82Z"/>
          <path class="cls-6" d="M209.81,20.07l-23.19-15.09-28.73,4.18,26.67-1.34s-2.05,18.05-1.55,16.76c.49-1.29,3.49-16.43,4.77-15.94,2.57.98,22.03,11.43,22.03,11.43Z"/>
          <path class="cls-6" d="M205.97,49.83l-25.63-19.73-29.76,4.76,27.16-1.39-2.38,20.47s.31,2.1.8.81c.49-1.29,3.52-21.27,4.97-20.77,2.6.88,24.85,15.85,24.85,15.85Z"/>
          <path class="cls-6" d="M175.37,25.77l-22.86-16.48-29.12,5.2,27.06-2.36s-2.27,19.61-1.78,18.32c.49-1.29,3.71-17.99,5-17.5,2.57.98,21.7,12.82,21.7,12.82Z"/>
          <path class="cls-6" d="M170.35,55.74l-25.63-19.73-29.76,4.76,27.16-1.39-2.38,20.47s.31,2.1.8.81c.49-1.29,3.52-21.27,4.96-20.78,2.6.88,24.85,15.85,24.85,15.85Z"/>
          <path class="cls-6" d="M139.74,31.69l-22.86-16.48-29.12,5.2,27.06-2.36s-2.27,19.61-1.78,18.32c.49-1.29,3.71-17.99,5-17.5,2.57.98,21.7,12.82,21.7,12.82Z"/>
          <path class="cls-6" d="M133.37,62.61l-25.63-19.73-29.76,4.77,27.16-1.39-2.38,20.47s.31,2.1.8.81c.49-1.29,3.52-21.27,4.97-20.78,2.6.88,24.85,15.85,24.85,15.85Z"/>
          <path class="cls-6" d="M102.77,38.56l-22.86-16.48-29.12,5.2,27.06-2.36s-2.27,19.61-1.78,18.32c.49-1.29,3.71-17.99,5-17.5,2.57.98,21.69,12.82,21.69,12.82Z"/>
          <path class="cls-6" d="M62.73,45.25l-22.86-16.48-29.12,5.2,27.06-2.36s-2.27,19.61-1.78,18.32c.49-1.29,3.71-17.99,5-17.5,2.57.98,21.7,12.82,21.7,12.82Z"/>
          <path class="cls-4" d="M231.94,70.6c.52-1.53.91-8.95,1.31-13.2,1.31,0,2.25.19,3.51.66l-1.61,12.17s-.56,3.44-3.9,4.17c-3.34.73-18.09,3.65-18.09,3.65,0,0,18.01-5.2,18.77-7.45Z"/>
          <path class="cls-3" d="M221.83,23.58l22.7,16.27s5.36,2.94,4.06,4.97c-1.3,2.04-4.42,2.66-5.82,2.97,0,0,4.43-2.98,1.97-5.36-2.46-2.38-22.89-18.85-22.89-18.85Z"/>
          <path class="cls-2" d="M8.68,48.03s-.26,16.29,2.78,20.34c3.04,4.05,23.11,19.33,23.11,19.33l-17.15-17.52s-4.18-2.93-5.27-7.77c-1.1-4.84-3.46-14.38-3.46-14.38Z"/>
          <path class="cls-1" d="M8.06,35.35c1.04-3.6,10.74-4.37,11.14-4.4,8.24-1.32,15.76-2.53,22.68-3.64l2.63-.42c13.77-2.22,26.06-4.22,37.58-6.12l2.62-.43c13.4-2.21,23.98-3.98,34.54-5.76l2.61-.44.3-.05c9.91-1.67,20.15-3.39,32.78-5.48l2.62-.43c4.97-.82,10.32-1.71,16.18-2.67,3.39-.51,8.16-1.11,11.68-1.09,1.8.01,3.1.19,3.87.53,3.7,1.62,7.19,3.89,7.23,3.92l18.49,13.16,2.24,1.59,25.83,18.39c.06.04,1.52,1.03,1.23,2.43-.41,1.97-4.08,3.57-10.91,4.75l-18.78,3.07-2.62.43-33.21,5.44-2.62.43-34.65,5.67-2.62.43-37.54,6.14-2.62.43-23.16,3.79c-3.03.51-5.88.76-8.48.74h0c-9.45-.06-12.77-3.52-13.06-3.85l-23.36-17.21-2.18-1.6-17.18-12.65c-2.59-1.9-3.68-3.62-3.25-5.1Z"/>
        </g>
      </g>
    </g>
  </g>
</svg>